<svg xmlns="http://www.w3.org/2000/svg" xmlns:xlink="http://www.w3.org/1999/xlink" width="500" zoomAndPan="magnify" viewBox="0 0 375 225" height="300" preserveAspectRatio="xMidYMid meet" version="1.0"><defs><g/></defs><g fill="#2f2d2e" fill-opacity="1"><g transform="translate(96.46969, 94.253395)"><g><path d="M 126.828125 -52.953125 C 126.578125 -52.910156 126.304688 -52.910156 126.015625 -52.953125 C 125.722656 -53.003906 125.453125 -53.128906 125.203125 -53.328125 C 124.898438 -53.617188 124.769531 -53.890625 124.8125 -54.140625 C 124.863281 -54.390625 124.96875 -54.617188 125.125 -54.828125 C 127.507812 -58.660156 129.570312 -62.675781 131.3125 -66.875 C 132.425781 -69.457031 133.40625 -72.117188 134.25 -74.859375 C 134.789062 -76.554688 134.832031 -78.382812 134.375 -80.34375 C 133.945312 -82.425781 132.703125 -83.894531 130.640625 -84.75 C 129.054688 -85.34375 127.4375 -85.660156 125.78125 -85.703125 C 125.476562 -85.703125 125.179688 -85.703125 124.890625 -85.703125 C 121.398438 -85.566406 118.007812 -85.070312 114.71875 -84.21875 C 109.03125 -82.832031 103.523438 -81.113281 98.203125 -79.0625 C 92.890625 -77.007812 87.691406 -74.769531 82.609375 -72.34375 C 60.328125 -61.5 40.375 -47.800781 22.75 -31.25 C 18.3125 -27.257812 14.425781 -22.796875 11.09375 -17.859375 C 9.9375 -16.109375 8.914062 -14.257812 8.03125 -12.3125 C 7.53125 -11.226562 7.175781 -10.0625 6.96875 -8.8125 C 6.21875 -4.769531 7.960938 -1.753906 12.203125 0.234375 C 15.785156 1.890625 19.425781 2.820312 23.125 3.03125 C 26.03125 3.28125 28.851562 3.40625 31.59375 3.40625 C 32.882812 3.40625 34.132812 3.347656 35.34375 3.234375 C 52.800781 3.046875 69.285156 0.773438 84.796875 -3.578125 C 85.046875 -3.660156 85.296875 -3.726562 85.546875 -3.78125 C 86.585938 -4.132812 87.6875 -4.414062 88.84375 -4.625 C 89.132812 -4.664062 89.625 -4.707031 90.3125 -4.75 C 91.007812 -4.800781 91.664062 -4.765625 92.28125 -4.640625 C 92.90625 -4.515625 93.300781 -4.226562 93.46875 -3.78125 C 93.507812 -3.53125 93.46875 -3.34375 93.34375 -3.21875 C 93.21875 -3.09375 93.03125 -3.003906 92.78125 -2.953125 C 91.832031 -2.703125 90.894531 -2.453125 89.96875 -2.203125 C 87.15625 -1.460938 84.351562 -0.738281 81.5625 -0.03125 C 65.84375 4 49.53125 5.957031 32.625 5.84375 C 29.125 5.84375 25.628906 5.773438 22.140625 5.640625 C 18.210938 5.484375 14.28125 4.65625 10.34375 3.15625 C 2.5 0.125 -0.242188 -4.882812 2.109375 -11.875 C 3.054688 -14.65625 4.40625 -17.226562 6.15625 -19.59375 C 8.582031 -23.082031 11.269531 -26.320312 14.21875 -29.3125 C 17.164062 -32.3125 20.238281 -35.203125 23.4375 -37.984375 C 37.695312 -50.546875 53.382812 -61.34375 70.5 -70.375 C 75.738281 -73.113281 81.070312 -75.664062 86.5 -78.03125 C 91.9375 -80.40625 97.546875 -82.5 103.328125 -84.3125 C 108.179688 -85.851562 113.171875 -87.019531 118.296875 -87.8125 C 120.359375 -88.113281 122.410156 -88.265625 124.453125 -88.265625 C 125.785156 -88.265625 127.132812 -88.21875 128.5 -88.125 C 130.082031 -87.96875 131.671875 -87.640625 133.265625 -87.140625 C 137.566406 -85.597656 139.765625 -82.75 139.859375 -78.59375 C 139.859375 -76.757812 139.609375 -74.992188 139.109375 -73.296875 C 138.066406 -70.003906 136.785156 -66.835938 135.265625 -63.796875 C 133.742188 -60.765625 132.113281 -57.796875 130.375 -54.890625 C 129.875 -53.898438 129.066406 -53.253906 127.953125 -52.953125 C 127.609375 -52.910156 127.289062 -52.910156 127 -52.953125 Z M 126.828125 -52.953125 "/></g></g></g><g fill="#2f2d2e" fill-opacity="1"><g transform="translate(193.353124, 94.253395)"><g><path d="M 24.671875 -17.328125 C 25.203125 -17.023438 25.242188 -16.28125 24.796875 -15.09375 C 24.140625 -14.238281 23.4375 -13.4375 22.6875 -12.6875 C 21.9375 -11.9375 21.117188 -11.269531 20.234375 -10.6875 C 20.171875 -10.6875 20.140625 -10.660156 20.140625 -10.609375 C 19.546875 -10.203125 18.921875 -9.851562 18.265625 -9.5625 C 12.847656 -7.601562 10.082031 -8.75 9.96875 -13 C 7.769531 -11.09375 6.296875 -9.921875 5.546875 -9.484375 C 3.753906 -8.421875 1.816406 -7.945312 -0.265625 -8.0625 C -1.804688 -8.15625 -2.851562 -8.625 -3.40625 -9.46875 C -3.96875 -10.320312 -3.921875 -11.472656 -3.265625 -12.921875 C -2.265625 -15.210938 -0.847656 -17.253906 0.984375 -19.046875 C 3.140625 -21.046875 5.53125 -22.644531 8.15625 -23.84375 C 9.5625 -24.539062 11.035156 -24.8125 12.578125 -24.65625 C 14.117188 -24.5625 15.050781 -23.691406 15.375 -22.046875 C 15.507812 -21.546875 15.382812 -21.101562 15 -20.71875 C 14.5 -20.257812 13.921875 -20.15625 13.265625 -20.40625 C 13.222656 -20.40625 13.160156 -20.414062 13.078125 -20.4375 C 12.992188 -20.457031 12.929688 -20.492188 12.890625 -20.546875 C 12.234375 -21.453125 11.566406 -21.832031 10.890625 -21.6875 C 10.222656 -21.539062 9.519531 -21.238281 8.78125 -20.78125 C 5.28125 -18.738281 2.679688 -15.894531 0.984375 -12.25 C 0.890625 -12.082031 0.832031 -11.898438 0.8125 -11.703125 C 0.789062 -11.515625 0.847656 -11.367188 0.984375 -11.265625 C 1.390625 -11.117188 1.84375 -11.140625 2.34375 -11.328125 C 2.84375 -11.523438 3.34375 -11.8125 3.84375 -12.1875 C 4.34375 -12.5625 4.765625 -12.875 5.109375 -13.125 C 5.148438 -13.195312 5.171875 -13.234375 5.171875 -13.234375 C 6.828125 -14.617188 8.445312 -16.035156 10.03125 -17.484375 C 10.738281 -18.234375 11.613281 -18.648438 12.65625 -18.734375 C 14.144531 -18.734375 14.765625 -18.066406 14.515625 -16.734375 C 14.378906 -16.234375 14.234375 -15.734375 14.078125 -15.234375 C 13.492188 -13.078125 13.472656 -11.8125 14.015625 -11.4375 C 14.554688 -11.070312 15.390625 -11.070312 16.515625 -11.4375 C 17.640625 -11.8125 18.757812 -12.523438 19.875 -13.578125 C 21 -14.640625 21.945312 -15.601562 22.71875 -16.46875 C 23.488281 -17.34375 24.140625 -17.628906 24.671875 -17.328125 Z M 24.671875 -17.328125 "/></g></g></g><g fill="#2f2d2e" fill-opacity="1"><g transform="translate(215.899186, 94.253395)"><g><path d="M 35.546875 -17.046875 C 36.335938 -17.535156 36.957031 -17.65625 37.40625 -17.40625 C 37.863281 -17.164062 37.695312 -16.46875 36.90625 -15.3125 C 35.90625 -13.96875 34.117188 -12.535156 31.546875 -11.015625 C 28.972656 -9.492188 26.695312 -8.828125 24.71875 -9.015625 C 22.75 -9.210938 22.175781 -10.671875 23 -13.390625 C 23.832031 -16.117188 24.28125 -17.644531 24.34375 -17.96875 C 24.414062 -18.300781 24.351562 -18.488281 24.15625 -18.53125 C 23.96875 -18.582031 23.523438 -18.359375 22.828125 -17.859375 C 20.785156 -16.453125 18.785156 -14.976562 16.828125 -13.4375 C 15.992188 -12.800781 15.171875 -12.128906 14.359375 -11.421875 C 13.859375 -10.972656 13.332031 -10.519531 12.78125 -10.0625 C 12.78125 -10.0625 12.757812 -10.039062 12.71875 -10 C 12.132812 -9.40625 11.410156 -9.007812 10.546875 -8.8125 C 10.160156 -8.695312 9.75 -8.65625 9.3125 -8.6875 C 8.882812 -8.71875 8.523438 -8.882812 8.234375 -9.1875 C 7.890625 -9.519531 7.765625 -9.875 7.859375 -10.25 C 7.953125 -10.625 8.234375 -11.1875 8.703125 -11.9375 C 9.179688 -12.6875 9.707031 -13.507812 10.28125 -14.40625 C 10.863281 -15.300781 11.1875 -15.847656 11.25 -16.046875 C 11.320312 -16.253906 11.289062 -16.460938 11.15625 -16.671875 C 11 -16.867188 10.820312 -16.925781 10.625 -16.84375 C 10.4375 -16.769531 9.71875 -16.285156 8.46875 -15.390625 C 7.21875 -14.492188 5.515625 -13.238281 3.359375 -11.625 C 2.367188 -10.882812 1.394531 -10.113281 0.4375 -9.3125 C 0.1875 -9.0625 -0.0820312 -8.835938 -0.375 -8.640625 C -1.070312 -8.046875 -1.84375 -7.726562 -2.6875 -7.6875 C -3.300781 -7.644531 -3.753906 -7.78125 -4.046875 -8.09375 C -4.335938 -8.414062 -4.382812 -8.847656 -4.1875 -9.390625 C -4.050781 -9.796875 -3.878906 -10.171875 -3.671875 -10.515625 C -3.554688 -10.671875 -3.476562 -10.828125 -3.4375 -10.984375 C -1.644531 -14.609375 0.125 -18.25 1.875 -21.90625 C 1.914062 -22 1.957031 -22.125 2 -22.28125 C 2.207031 -22.664062 2.414062 -23.039062 2.625 -23.40625 C 3.164062 -23.988281 3.8125 -24.179688 4.5625 -23.984375 C 5.414062 -23.734375 5.742188 -23.234375 5.546875 -22.484375 C 5.140625 -21.347656 4.742188 -20.222656 4.359375 -19.109375 C 4.148438 -18.609375 3.941406 -18.113281 3.734375 -17.625 C 3.398438 -16.738281 3.296875 -16.171875 3.421875 -15.921875 C 3.546875 -15.671875 4.109375 -15.835938 5.109375 -16.421875 C 5.785156 -16.878906 6.453125 -17.332031 7.109375 -17.78125 C 7.898438 -18.332031 8.671875 -18.832031 9.421875 -19.28125 C 10.578125 -19.988281 11.753906 -20.59375 12.953125 -21.09375 C 13.546875 -21.34375 14.15625 -21.523438 14.78125 -21.640625 C 15.40625 -21.765625 15.988281 -21.625 16.53125 -21.21875 C 16.9375 -20.882812 17.109375 -20.5 17.046875 -20.0625 C 16.992188 -19.632812 16.878906 -19.226562 16.703125 -18.84375 C 16.378906 -18.09375 16.242188 -17.613281 16.296875 -17.40625 C 16.359375 -17.207031 16.535156 -17.171875 16.828125 -17.296875 C 17.128906 -17.421875 17.648438 -17.707031 18.390625 -18.15625 C 19.140625 -18.613281 19.945312 -19.113281 20.8125 -19.65625 C 21.90625 -20.363281 23.050781 -21.035156 24.25 -21.671875 C 25.25 -22.328125 26.316406 -22.722656 27.453125 -22.859375 C 29.015625 -22.972656 29.648438 -22.34375 29.359375 -20.96875 C 29.078125 -19.59375 28.53125 -17.957031 27.71875 -16.0625 C 26.90625 -14.175781 26.820312 -13.015625 27.46875 -12.578125 C 28.113281 -12.148438 29.546875 -12.734375 31.765625 -14.328125 C 33.984375 -15.929688 35.242188 -16.835938 35.546875 -17.046875 Z M 35.546875 -17.046875 "/></g></g></g><g fill="#2f2d2e" fill-opacity="1"><g transform="translate(251.877658, 94.253395)"><g><path d="M 19.390625 -13.0625 C 18.078125 -11.769531 16.546875 -10.660156 14.796875 -9.734375 C 13.046875 -8.816406 11.582031 -8.21875 10.40625 -7.9375 C 9.226562 -7.65625 8.015625 -7.492188 6.765625 -7.453125 C 4.773438 -7.359375 2.941406 -7.628906 1.265625 -8.265625 C -1.484375 -9.378906 -2.4375 -11.5 -1.59375 -14.625 C -0.800781 -17.320312 0.804688 -19.429688 3.234375 -20.953125 C 5.660156 -22.472656 8.164062 -23.207031 10.75 -23.15625 C 10.75 -23.15625 10.769531 -23.15625 10.8125 -23.15625 C 11.46875 -23.207031 12.09375 -23.164062 12.6875 -23.03125 C 13.6875 -22.664062 14.320312 -22.070312 14.59375 -21.25 C 14.863281 -20.4375 14.679688 -19.53125 14.046875 -18.53125 C 12.597656 -16.332031 10.625 -15.109375 8.125 -14.859375 C 6.46875 -14.703125 4.867188 -14.78125 3.328125 -15.09375 C 3.035156 -15.144531 2.773438 -15.066406 2.546875 -14.859375 C 2.316406 -14.660156 2.179688 -14.410156 2.140625 -14.109375 C 1.691406 -12.160156 2.296875 -10.914062 3.953125 -10.375 C 5.984375 -9.664062 8.101562 -9.664062 10.3125 -10.375 C 12.84375 -11.164062 15.253906 -12.660156 17.546875 -14.859375 C 19.835938 -17.054688 21.160156 -18.082031 21.515625 -17.9375 C 21.867188 -17.789062 21.972656 -17.367188 21.828125 -16.671875 C 21.515625 -15.554688 20.703125 -14.351562 19.390625 -13.0625 Z M 4.890625 -18.53125 C 4.753906 -18.375 4.660156 -18.195312 4.609375 -18 C 4.554688 -17.8125 4.628906 -17.640625 4.828125 -17.484375 C 5.617188 -17.023438 6.476562 -16.859375 7.40625 -16.984375 C 8.34375 -17.109375 9.132812 -17.457031 9.78125 -18.03125 C 10.425781 -18.613281 10.703125 -19.328125 10.609375 -20.171875 C 10.546875 -20.460938 10.390625 -20.644531 10.140625 -20.71875 C 9.890625 -20.800781 9.640625 -20.820312 9.390625 -20.78125 C 7.710938 -20.488281 6.210938 -19.738281 4.890625 -18.53125 Z M 4.890625 -18.53125 "/></g></g></g><g fill="#2f2d2e" fill-opacity="1"><g transform="translate(271.669218, 94.253395)"><g><path d="M 16.3125 -20.875 C 16.113281 -19.3125 15.378906 -18.289062 14.109375 -17.8125 C 12.835938 -17.34375 12.421875 -17.96875 12.859375 -19.6875 C 13.304688 -21.414062 12.53125 -21.851562 10.53125 -21 C 8.539062 -20.15625 6.898438 -19.082031 5.609375 -17.78125 C 3.617188 -15.75 1.851562 -13.550781 0.3125 -11.1875 C 0.144531 -10.988281 0.0195312 -10.820312 -0.0625 -10.6875 C -0.519531 -10.019531 -0.972656 -9.394531 -1.421875 -8.8125 C -1.722656 -8.40625 -2.070312 -8.148438 -2.46875 -8.046875 C -2.863281 -7.941406 -3.265625 -7.925781 -3.671875 -8 C -4.054688 -8.039062 -4.347656 -8.1875 -4.546875 -8.4375 C -4.753906 -8.6875 -4.78125 -8.976562 -4.625 -9.3125 C -4.375 -9.925781 -4.078125 -10.550781 -3.734375 -11.1875 C -1.703125 -14.976562 0.367188 -18.773438 2.484375 -22.578125 C 2.523438 -22.628906 2.546875 -22.675781 2.546875 -22.71875 C 2.847656 -23.3125 3.203125 -23.859375 3.609375 -24.359375 C 4.054688 -24.847656 4.570312 -25.046875 5.15625 -24.953125 C 5.75 -24.867188 6.148438 -24.519531 6.359375 -23.90625 C 6.609375 -23.113281 6.820312 -22.664062 7 -22.5625 C 7.1875 -22.457031 7.597656 -22.53125 8.234375 -22.78125 C 9.585938 -23.28125 10.910156 -23.628906 12.203125 -23.828125 C 13.503906 -24.035156 14.566406 -23.988281 15.390625 -23.6875 C 16.210938 -23.382812 16.519531 -22.445312 16.3125 -20.875 Z M 16.3125 -20.875 "/></g></g></g><g fill="#2f2d2e" fill-opacity="1"><g transform="translate(288.672288, 94.253395)"><g><path d="M 5.40625 -8.0625 L 5.3125 -8.0625 C 2.019531 -8.101562 -0.144531 -8.832031 -1.1875 -10.25 C -2.226562 -11.664062 -2.179688 -13.554688 -1.046875 -15.921875 C -0.0976562 -17.710938 1.097656 -19.273438 2.546875 -20.609375 C 3.046875 -21.066406 3.554688 -21.429688 4.078125 -21.703125 C 4.597656 -21.972656 5.1875 -22.109375 5.84375 -22.109375 C 6.226562 -22.171875 6.671875 -22.101562 7.171875 -21.90625 C 7.335938 -21.851562 7.5 -21.796875 7.65625 -21.734375 C 8.039062 -21.796875 8.414062 -21.921875 8.78125 -22.109375 C 8.863281 -22.171875 8.988281 -22.226562 9.15625 -22.28125 C 9.894531 -22.570312 10.6875 -22.695312 11.53125 -22.65625 C 11.875 -22.65625 12.222656 -22.65625 12.578125 -22.65625 C 13.921875 -22.445312 14.929688 -21.882812 15.609375 -20.96875 C 16.285156 -20.050781 16.523438 -18.9375 16.328125 -17.625 C 16.210938 -16.820312 15.960938 -16.070312 15.578125 -15.375 C 12.972656 -10.695312 9.648438 -8.257812 5.609375 -8.0625 Z M 10.78125 -20.234375 C 8.988281 -20.304688 7.394531 -19.789062 6 -18.6875 C 4.601562 -17.59375 3.566406 -16.328125 2.890625 -14.890625 C 2.210938 -13.460938 2.023438 -12.289062 2.328125 -11.375 C 2.628906 -10.457031 3.578125 -10.203125 5.171875 -10.609375 C 6.960938 -11.148438 8.539062 -12.171875 9.90625 -13.671875 C 11.28125 -15.171875 12.117188 -16.59375 12.421875 -17.9375 C 12.734375 -19.289062 12.1875 -20.054688 10.78125 -20.234375 Z M 10.78125 -20.234375 "/></g></g></g><g fill="#2f2d2e" fill-opacity="1"><g transform="translate(306.729553, 94.253395)"><g><path d="M 26.9375 -16.96875 C 27.300781 -16.519531 26.847656 -15.691406 25.578125 -14.484375 C 24.304688 -13.285156 22.957031 -12.273438 21.53125 -11.453125 C 20.101562 -10.640625 18.445312 -9.828125 16.5625 -9.015625 C 15.3125 -8.472656 13.984375 -8.289062 12.578125 -8.46875 C 11.171875 -8.644531 10.46875 -9.492188 10.46875 -11.015625 C 10.46875 -12.535156 10.820312 -14.046875 11.53125 -15.546875 C 12.226562 -17.085938 12.378906 -17.878906 11.984375 -17.921875 C 11.585938 -17.972656 10.765625 -17.597656 9.515625 -16.796875 C 6.273438 -14.671875 3.257812 -12.234375 0.46875 -9.484375 C -0.269531 -8.578125 -1.21875 -8.082031 -2.375 -8 C -2.96875 -8 -3.425781 -8.179688 -3.75 -8.546875 C -4.082031 -8.921875 -4.125 -9.328125 -3.875 -9.765625 C -1.882812 -13.460938 0.128906 -17.113281 2.171875 -20.71875 C 2.628906 -21.457031 3.3125 -21.921875 4.21875 -22.109375 C 4.601562 -22.171875 4.957031 -22.050781 5.28125 -21.75 C 5.613281 -21.445312 5.78125 -21.101562 5.78125 -20.71875 C 5.738281 -20.351562 5.59375 -19.921875 5.34375 -19.421875 C 5.226562 -19.128906 5.117188 -18.84375 5.015625 -18.5625 C 4.910156 -18.289062 4.875 -18.066406 4.90625 -17.890625 C 4.945312 -17.710938 5.09375 -17.65625 5.34375 -17.71875 C 5.675781 -17.90625 6.015625 -18.097656 6.359375 -18.296875 C 7.222656 -18.796875 8.050781 -19.273438 8.84375 -19.734375 C 9.539062 -20.140625 10.273438 -20.5 11.046875 -20.8125 C 11.816406 -21.132812 12.625 -21.351562 13.46875 -21.46875 C 14.832031 -21.550781 15.796875 -21.238281 16.359375 -20.53125 C 16.921875 -19.832031 16.988281 -18.863281 16.5625 -17.625 C 16.113281 -16.488281 15.640625 -15.363281 15.140625 -14.25 C 14.523438 -13.207031 14.421875 -12.410156 14.828125 -11.859375 C 15.234375 -11.316406 17.128906 -11.941406 20.515625 -13.734375 L 23.0625 -15.234375 C 25.46875 -16.773438 26.757812 -17.351562 26.9375 -16.96875 Z M 26.9375 -16.96875 "/></g></g></g><g fill="#2f2d2e" fill-opacity="1"><g transform="translate(56.707973, 191.75339)"><g><path d="M 149.28125 -82.078125 C 149.125 -81.660156 148.960938 -81.25 148.796875 -80.84375 C 147.210938 -76.71875 145.503906 -72.660156 143.671875 -68.671875 C 134.191406 -48.960938 124.007812 -29.90625 113.125 -11.5 C 109.582031 -5.550781 105.960938 0.285156 102.265625 6.015625 C 98.578125 11.753906 94.863281 17.46875 91.125 23.15625 C 90.238281 24.5 89.34375 25.835938 88.4375 27.171875 C 88.382812 27.285156 88.335938 27.363281 88.296875 27.40625 C 88.085938 27.820312 87.847656 28.164062 87.578125 28.4375 C 87.304688 28.707031 86.941406 28.84375 86.484375 28.84375 C 86.285156 28.84375 86.070312 28.789062 85.84375 28.6875 C 85.613281 28.582031 85.429688 28.453125 85.296875 28.296875 C 85.179688 28.160156 85.101562 27.9375 85.0625 27.625 C 85.019531 27.320312 85.039062 27.082031 85.125 26.90625 C 85.738281 25.59375 86.421875 24.34375 87.171875 23.15625 C 88.847656 20.414062 90.535156 17.675781 92.234375 14.9375 C 95.429688 9.832031 98.570312 4.71875 101.65625 -0.40625 C 108.507812 -11.832031 115.050781 -23.5 121.28125 -35.40625 C 127.519531 -47.3125 133.609375 -59.34375 139.546875 -71.5 C 141.929688 -76.1875 143.894531 -81.207031 145.4375 -86.5625 C 145.75 -87.488281 145.988281 -88.453125 146.15625 -89.453125 C 146.332031 -90.453125 146.421875 -91.484375 146.421875 -92.546875 C 146.265625 -94.835938 145.289062 -95.835938 143.5 -95.546875 C 141.90625 -95.222656 140.40625 -94.722656 139 -94.046875 C 135.664062 -92.429688 132.378906 -90.648438 129.140625 -88.703125 C 111.722656 -78.140625 95.863281 -65.019531 81.5625 -49.34375 C 81.351562 -49.101562 81.125 -48.859375 80.875 -48.609375 C 75.9375 -43.234375 71.035156 -37.8125 66.171875 -32.34375 C 61.304688 -26.875 56.582031 -21.25 52 -15.46875 C 51.050781 -14.269531 50.054688 -13.148438 49.015625 -12.109375 C 47.898438 -10.953125 46.570312 -10.5 45.03125 -10.75 C 44.375 -10.84375 43.832031 -11.164062 43.40625 -11.71875 C 42.988281 -12.269531 42.828125 -12.921875 42.921875 -13.671875 C 43.242188 -15.710938 43.695312 -17.6875 44.28125 -19.59375 C 46.113281 -25.625 48.066406 -31.578125 50.140625 -37.453125 C 50.429688 -38.359375 50.703125 -39.226562 50.953125 -40.0625 C 51.492188 -42.257812 52.265625 -44.289062 53.265625 -46.15625 C 53.265625 -46.195312 53.238281 -46.21875 53.1875 -46.21875 C 52.945312 -46.351562 52.703125 -46.460938 52.453125 -46.546875 C 52.203125 -46.628906 51.953125 -46.546875 51.703125 -46.296875 C 50.796875 -45.296875 49.921875 -44.25 49.078125 -43.15625 C 42.179688 -33.8125 35.351562 -24.390625 28.59375 -14.890625 C 21.84375 -5.390625 15.25 4.265625 8.8125 14.078125 C 8.269531 15.035156 7.660156 15.8125 6.984375 16.40625 C 6.316406 17.007812 5.425781 17.207031 4.3125 17 C 3.820312 16.863281 3.4375 16.554688 3.15625 16.078125 C 2.882812 15.609375 2.832031 15.144531 3 14.6875 C 3.582031 13.351562 4.226562 12.085938 4.9375 10.890625 C 6.925781 7.441406 8.894531 3.992188 10.84375 0.546875 C 14.769531 -6.273438 18.660156 -13.132812 22.515625 -20.03125 C 28.503906 -30.59375 33.84375 -41.71875 38.53125 -53.40625 C 40.375 -57.894531 41.875 -62.609375 43.03125 -67.546875 C 43.664062 -70.179688 43.9375 -72.925781 43.84375 -75.78125 C 43.550781 -80.363281 42.03125 -83.640625 39.28125 -85.609375 C 36.539062 -87.578125 32.9375 -88.507812 28.46875 -88.40625 C 24 -88.3125 19.039062 -87.398438 13.59375 -85.671875 C 8.15625 -83.953125 2.582031 -81.675781 -3.125 -78.84375 C -8.84375 -76.007812 -14.351562 -72.878906 -19.65625 -69.453125 C -24.96875 -66.023438 -29.691406 -62.550781 -33.828125 -59.03125 C -37.960938 -55.519531 -41.1875 -52.222656 -43.5 -49.140625 C -45.925781 -45.742188 -47.988281 -42.003906 -49.6875 -37.921875 C -50.550781 -35.972656 -51.050781 -33.851562 -51.1875 -31.5625 C -51.226562 -31.101562 -51.453125 -30.757812 -51.859375 -30.53125 C -52.273438 -30.3125 -52.734375 -30.25 -53.234375 -30.34375 C -54.023438 -30.59375 -54.519531 -31.210938 -54.71875 -32.203125 C -54.851562 -33.523438 -54.753906 -34.726562 -54.421875 -35.8125 C -53.671875 -38.5625 -52.671875 -41.160156 -51.421875 -43.609375 C -49.128906 -47.890625 -45.648438 -52.265625 -40.984375 -56.734375 C -36.316406 -61.203125 -30.875 -65.476562 -24.65625 -69.5625 C -18.445312 -73.65625 -11.960938 -77.304688 -5.203125 -80.515625 C 1.554688 -83.722656 8.164062 -86.21875 14.625 -88 C 21.082031 -89.78125 26.898438 -90.578125 32.078125 -90.390625 C 37.265625 -90.210938 41.351562 -88.789062 44.34375 -86.125 C 47.34375 -83.46875 48.796875 -79.269531 48.703125 -73.53125 C 48.546875 -69.832031 47.96875 -66.316406 46.96875 -62.984375 C 45.519531 -58.085938 43.847656 -53.351562 41.953125 -48.78125 C 40.054688 -44.21875 38.046875 -39.75 35.921875 -35.375 C 35.265625 -34.007812 35.117188 -33.34375 35.484375 -33.375 C 35.859375 -33.414062 36.421875 -33.9375 37.171875 -34.9375 C 39.867188 -38.507812 42.566406 -42.046875 45.265625 -45.546875 C 47.109375 -47.878906 48.976562 -50.164062 50.875 -52.40625 C 51.125 -52.726562 51.375 -53.035156 51.625 -53.328125 C 52.71875 -54.671875 54.035156 -55.566406 55.578125 -56.015625 C 56.734375 -56.265625 57.707031 -56.003906 58.5 -55.234375 C 59.289062 -54.460938 59.5625 -53.304688 59.3125 -51.765625 C 59.269531 -51.609375 59.226562 -51.453125 59.1875 -51.296875 C 58.769531 -49.296875 58.289062 -47.351562 57.75 -45.46875 C 56.300781 -40.863281 54.804688 -36.296875 53.265625 -31.765625 C 52.515625 -29.429688 51.765625 -27.0625 51.015625 -24.65625 C 50.859375 -24.3125 50.632812 -23.6875 50.34375 -22.78125 C 50.039062 -21.988281 49.753906 -21.207031 49.484375 -20.4375 C 49.210938 -19.664062 49 -19.078125 48.84375 -18.671875 C 49.039062 -18.828125 50.890625 -20.898438 54.390625 -24.890625 C 59.128906 -30.335938 64.738281 -36.710938 71.21875 -44.015625 C 77.707031 -51.316406 82.796875 -56.894531 86.484375 -60.75 C 93.316406 -67.613281 100.515625 -73.863281 108.078125 -79.5 C 115.640625 -85.132812 123.476562 -90.234375 131.59375 -94.796875 C 133.582031 -95.835938 135.632812 -96.773438 137.75 -97.609375 C 138.195312 -97.773438 138.640625 -97.957031 139.078125 -98.15625 C 141.066406 -98.945312 143.1875 -99.242188 145.4375 -99.046875 C 149.738281 -98.640625 151.710938 -95.914062 151.359375 -90.875 C 151.109375 -87.75 150.414062 -84.816406 149.28125 -82.078125 Z M 53.03125 -46.421875 C 53.132812 -46.335938 53.210938 -46.269531 53.265625 -46.21875 C 53.265625 -46.21875 53.265625 -46.195312 53.265625 -46.15625 C 53.304688 -46.15625 53.328125 -46.175781 53.328125 -46.21875 C 53.234375 -46.269531 53.132812 -46.335938 53.03125 -46.421875 Z M 53.03125 -46.421875 "/></g></g></g><g fill="#2f2d2e" fill-opacity="1"><g transform="translate(184.877035, 191.75339)"><g><path d="M 24.671875 -17.328125 C 25.203125 -17.023438 25.242188 -16.28125 24.796875 -15.09375 C 24.140625 -14.238281 23.4375 -13.4375 22.6875 -12.6875 C 21.9375 -11.9375 21.117188 -11.269531 20.234375 -10.6875 C 20.171875 -10.6875 20.140625 -10.660156 20.140625 -10.609375 C 19.546875 -10.203125 18.921875 -9.851562 18.265625 -9.5625 C 12.847656 -7.601562 10.082031 -8.75 9.96875 -13 C 7.769531 -11.09375 6.296875 -9.921875 5.546875 -9.484375 C 3.753906 -8.421875 1.816406 -7.945312 -0.265625 -8.0625 C -1.804688 -8.15625 -2.851562 -8.625 -3.40625 -9.46875 C -3.96875 -10.320312 -3.921875 -11.472656 -3.265625 -12.921875 C -2.265625 -15.210938 -0.847656 -17.253906 0.984375 -19.046875 C 3.140625 -21.046875 5.53125 -22.644531 8.15625 -23.84375 C 9.5625 -24.539062 11.035156 -24.8125 12.578125 -24.65625 C 14.117188 -24.5625 15.050781 -23.691406 15.375 -22.046875 C 15.507812 -21.546875 15.382812 -21.101562 15 -20.71875 C 14.5 -20.257812 13.921875 -20.15625 13.265625 -20.40625 C 13.222656 -20.40625 13.160156 -20.414062 13.078125 -20.4375 C 12.992188 -20.457031 12.929688 -20.492188 12.890625 -20.546875 C 12.234375 -21.453125 11.566406 -21.832031 10.890625 -21.6875 C 10.222656 -21.539062 9.519531 -21.238281 8.78125 -20.78125 C 5.28125 -18.738281 2.679688 -15.894531 0.984375 -12.25 C 0.890625 -12.082031 0.832031 -11.898438 0.8125 -11.703125 C 0.789062 -11.515625 0.847656 -11.367188 0.984375 -11.265625 C 1.390625 -11.117188 1.84375 -11.140625 2.34375 -11.328125 C 2.84375 -11.523438 3.34375 -11.8125 3.84375 -12.1875 C 4.34375 -12.5625 4.765625 -12.875 5.109375 -13.125 C 5.148438 -13.195312 5.171875 -13.234375 5.171875 -13.234375 C 6.828125 -14.617188 8.445312 -16.035156 10.03125 -17.484375 C 10.738281 -18.234375 11.613281 -18.648438 12.65625 -18.734375 C 14.144531 -18.734375 14.765625 -18.066406 14.515625 -16.734375 C 14.378906 -16.234375 14.234375 -15.734375 14.078125 -15.234375 C 13.492188 -13.078125 13.472656 -11.8125 14.015625 -11.4375 C 14.554688 -11.070312 15.390625 -11.070312 16.515625 -11.4375 C 17.640625 -11.8125 18.757812 -12.523438 19.875 -13.578125 C 21 -14.640625 21.945312 -15.601562 22.71875 -16.46875 C 23.488281 -17.34375 24.140625 -17.628906 24.671875 -17.328125 Z M 24.671875 -17.328125 "/></g></g></g><g fill="#2f2d2e" fill-opacity="1"><g transform="translate(207.423097, 191.75339)"><g><path d="M 26.359375 -17.34375 C 26.535156 -17.09375 26.578125 -16.84375 26.484375 -16.59375 C 26.398438 -16.34375 26.234375 -16.117188 25.984375 -15.921875 C 24.421875 -14.515625 22.675781 -13.390625 20.75 -12.546875 C 17.4375 -11.003906 13.96875 -10.050781 10.34375 -9.6875 C 7.476562 -9.394531 4.753906 -9.828125 2.171875 -10.984375 C 1.222656 -11.410156 0.519531 -11.1875 0.0625 -10.3125 C -0.570312 -9.0625 -1.238281 -7.8125 -1.9375 -6.5625 C -2.28125 -5.863281 -2.65625 -5.140625 -3.0625 -4.390625 C -3.101562 -4.296875 -3.148438 -4.191406 -3.203125 -4.078125 C -3.359375 -3.828125 -3.507812 -3.585938 -3.65625 -3.359375 C -3.800781 -3.140625 -4.054688 -2.984375 -4.421875 -2.890625 C -4.597656 -2.847656 -4.789062 -2.828125 -5 -2.828125 C -5.207031 -2.828125 -5.390625 -2.867188 -5.546875 -2.953125 C -5.679688 -3.066406 -5.796875 -3.21875 -5.890625 -3.40625 C -5.992188 -3.601562 -6.046875 -3.804688 -6.046875 -4.015625 C -5.890625 -4.671875 -5.664062 -5.316406 -5.375 -5.953125 C -4.738281 -7.398438 -4.113281 -8.828125 -3.5 -10.234375 C -1.957031 -13.816406 -0.335938 -17.351562 1.359375 -20.84375 C 6.054688 -30.476562 10.523438 -40.207031 14.765625 -50.03125 C 15.097656 -50.976562 15.5625 -51.828125 16.15625 -52.578125 C 16.601562 -53.128906 17.226562 -53.28125 18.03125 -53.03125 C 18.84375 -52.6875 19.09375 -52.109375 18.78125 -51.296875 C 18.226562 -49.609375 17.632812 -47.914062 17 -46.21875 C 13.851562 -38.445312 10.410156 -30.816406 6.671875 -23.328125 C 5.867188 -21.722656 5.582031 -20.707031 5.8125 -20.28125 C 6.039062 -19.863281 6.570312 -19.832031 7.40625 -20.1875 C 8.25 -20.539062 9.226562 -21.007812 10.34375 -21.59375 C 11.132812 -22.050781 11.925781 -22.445312 12.71875 -22.78125 C 12.875 -22.894531 13.019531 -22.976562 13.15625 -23.03125 C 14.113281 -23.570312 15.144531 -23.863281 16.25 -23.90625 C 16.6875 -23.90625 17.003906 -23.710938 17.203125 -23.328125 C 17.316406 -23.078125 17.320312 -22.859375 17.21875 -22.671875 C 17.125 -22.492188 16.992188 -22.363281 16.828125 -22.28125 C 15.128906 -21.28125 13.410156 -20.328125 11.671875 -19.421875 C 10.828125 -19.035156 9.953125 -18.613281 9.046875 -18.15625 C 8.160156 -17.75 7.285156 -17.320312 6.421875 -16.875 C 5.835938 -16.53125 5.296875 -16.128906 4.796875 -15.671875 C 3.640625 -14.472656 3.765625 -13.476562 5.171875 -12.6875 C 6.328125 -12.1875 7.488281 -11.925781 8.65625 -11.90625 C 9.820312 -11.882812 10.984375 -12.019531 12.140625 -12.3125 C 15.722656 -13.101562 19.09375 -14.40625 22.25 -16.21875 C 22.5 -16.351562 22.742188 -16.476562 22.984375 -16.59375 C 23.578125 -16.976562 24.203125 -17.320312 24.859375 -17.625 C 25.109375 -17.726562 25.378906 -17.769531 25.671875 -17.75 C 25.972656 -17.726562 26.203125 -17.59375 26.359375 -17.34375 Z M 26.359375 -17.34375 "/></g></g></g><g fill="#2f2d2e" fill-opacity="1"><g transform="translate(231.363403, 191.75339)"><g><path d="M 24.671875 -17.328125 C 25.203125 -17.023438 25.242188 -16.28125 24.796875 -15.09375 C 24.140625 -14.238281 23.4375 -13.4375 22.6875 -12.6875 C 21.9375 -11.9375 21.117188 -11.269531 20.234375 -10.6875 C 20.171875 -10.6875 20.140625 -10.660156 20.140625 -10.609375 C 19.546875 -10.203125 18.921875 -9.851562 18.265625 -9.5625 C 12.847656 -7.601562 10.082031 -8.75 9.96875 -13 C 7.769531 -11.09375 6.296875 -9.921875 5.546875 -9.484375 C 3.753906 -8.421875 1.816406 -7.945312 -0.265625 -8.0625 C -1.804688 -8.15625 -2.851562 -8.625 -3.40625 -9.46875 C -3.96875 -10.320312 -3.921875 -11.472656 -3.265625 -12.921875 C -2.265625 -15.210938 -0.847656 -17.253906 0.984375 -19.046875 C 3.140625 -21.046875 5.53125 -22.644531 8.15625 -23.84375 C 9.5625 -24.539062 11.035156 -24.8125 12.578125 -24.65625 C 14.117188 -24.5625 15.050781 -23.691406 15.375 -22.046875 C 15.507812 -21.546875 15.382812 -21.101562 15 -20.71875 C 14.5 -20.257812 13.921875 -20.15625 13.265625 -20.40625 C 13.222656 -20.40625 13.160156 -20.414062 13.078125 -20.4375 C 12.992188 -20.457031 12.929688 -20.492188 12.890625 -20.546875 C 12.234375 -21.453125 11.566406 -21.832031 10.890625 -21.6875 C 10.222656 -21.539062 9.519531 -21.238281 8.78125 -20.78125 C 5.28125 -18.738281 2.679688 -15.894531 0.984375 -12.25 C 0.890625 -12.082031 0.832031 -11.898438 0.8125 -11.703125 C 0.789062 -11.515625 0.847656 -11.367188 0.984375 -11.265625 C 1.390625 -11.117188 1.84375 -11.140625 2.34375 -11.328125 C 2.84375 -11.523438 3.34375 -11.8125 3.84375 -12.1875 C 4.34375 -12.5625 4.765625 -12.875 5.109375 -13.125 C 5.148438 -13.195312 5.171875 -13.234375 5.171875 -13.234375 C 6.828125 -14.617188 8.445312 -16.035156 10.03125 -17.484375 C 10.738281 -18.234375 11.613281 -18.648438 12.65625 -18.734375 C 14.144531 -18.734375 14.765625 -18.066406 14.515625 -16.734375 C 14.378906 -16.234375 14.234375 -15.734375 14.078125 -15.234375 C 13.492188 -13.078125 13.472656 -11.8125 14.015625 -11.4375 C 14.554688 -11.070312 15.390625 -11.070312 16.515625 -11.4375 C 17.640625 -11.8125 18.757812 -12.523438 19.875 -13.578125 C 21 -14.640625 21.945312 -15.601562 22.71875 -16.46875 C 23.488281 -17.34375 24.140625 -17.628906 24.671875 -17.328125 Z M 24.671875 -17.328125 "/></g></g></g><g fill="#2f2d2e" fill-opacity="1"><g transform="translate(253.909465, 191.75339)"><g><path d="M 16.3125 -20.875 C 16.113281 -19.3125 15.378906 -18.289062 14.109375 -17.8125 C 12.835938 -17.34375 12.421875 -17.96875 12.859375 -19.6875 C 13.304688 -21.414062 12.53125 -21.851562 10.53125 -21 C 8.539062 -20.15625 6.898438 -19.082031 5.609375 -17.78125 C 3.617188 -15.75 1.851562 -13.550781 0.3125 -11.1875 C 0.144531 -10.988281 0.0195312 -10.820312 -0.0625 -10.6875 C -0.519531 -10.019531 -0.972656 -9.394531 -1.421875 -8.8125 C -1.722656 -8.40625 -2.070312 -8.148438 -2.46875 -8.046875 C -2.863281 -7.941406 -3.265625 -7.925781 -3.671875 -8 C -4.054688 -8.039062 -4.347656 -8.1875 -4.546875 -8.4375 C -4.753906 -8.6875 -4.78125 -8.976562 -4.625 -9.3125 C -4.375 -9.925781 -4.078125 -10.550781 -3.734375 -11.1875 C -1.703125 -14.976562 0.367188 -18.773438 2.484375 -22.578125 C 2.523438 -22.628906 2.546875 -22.675781 2.546875 -22.71875 C 2.847656 -23.3125 3.203125 -23.859375 3.609375 -24.359375 C 4.054688 -24.847656 4.570312 -25.046875 5.15625 -24.953125 C 5.75 -24.867188 6.148438 -24.519531 6.359375 -23.90625 C 6.609375 -23.113281 6.820312 -22.664062 7 -22.5625 C 7.1875 -22.457031 7.597656 -22.53125 8.234375 -22.78125 C 9.585938 -23.28125 10.910156 -23.628906 12.203125 -23.828125 C 13.503906 -24.035156 14.566406 -23.988281 15.390625 -23.6875 C 16.210938 -23.382812 16.519531 -22.445312 16.3125 -20.875 Z M 16.3125 -20.875 "/></g></g></g><g fill="#2f2d2e" fill-opacity="1"><g transform="translate(270.912524, 191.75339)"><g><path d="M 24.515625 -17.71875 C 24.628906 -17.71875 24.757812 -17.6875 24.90625 -17.625 C 25.0625 -17.570312 25.179688 -17.503906 25.265625 -17.421875 C 25.585938 -17.117188 25.625 -16.765625 25.375 -16.359375 C 25.050781 -16.015625 24.742188 -15.71875 24.453125 -15.46875 C 22.703125 -13.863281 20.765625 -12.515625 18.640625 -11.421875 C 15.285156 -9.722656 11.585938 -8.851562 7.546875 -8.8125 C 6.054688 -8.757812 4.515625 -9.007812 2.921875 -9.5625 C 0.0234375 -10.695312 -1.148438 -12.789062 -0.609375 -15.84375 C 0.046875 -18.675781 1.644531 -21.03125 4.1875 -22.90625 C 6.726562 -24.78125 9.445312 -25.59375 12.34375 -25.34375 C 12.882812 -25.25 13.429688 -25.125 13.984375 -24.96875 C 14.484375 -24.757812 14.851562 -24.457031 15.09375 -24.0625 C 15.34375 -23.664062 15.367188 -23.34375 15.171875 -23.09375 C 14.628906 -22.5 14.003906 -22.351562 13.296875 -22.65625 C 12.253906 -23.101562 11.296875 -23.222656 10.421875 -23.015625 C 9.546875 -22.816406 8.664062 -22.34375 7.78125 -21.59375 C 6.925781 -20.9375 6 -19.984375 5 -18.734375 C 4 -17.492188 3.363281 -16.238281 3.09375 -14.96875 C 2.820312 -13.695312 3.390625 -12.664062 4.796875 -11.875 C 6.378906 -11.164062 8 -10.992188 9.65625 -11.359375 C 13.78125 -12.203125 17.613281 -13.765625 21.15625 -16.046875 C 21.46875 -16.210938 21.75 -16.394531 22 -16.59375 C 22.382812 -16.894531 22.773438 -17.140625 23.171875 -17.328125 C 23.578125 -17.523438 24.023438 -17.65625 24.515625 -17.71875 Z M 24.515625 -17.71875 "/></g></g></g><g fill="#2f2d2e" fill-opacity="1"><g transform="translate(293.594622, 191.75339)"><g><path d="M 27.625 -15.84375 C 27.207031 -15.488281 26.773438 -15.160156 26.328125 -14.859375 C 24.867188 -13.953125 23.554688 -13.238281 22.390625 -12.71875 C 21.222656 -12.195312 19.847656 -11.664062 18.265625 -11.125 C 15.910156 -10.414062 14.394531 -10.570312 13.71875 -11.59375 C 13.050781 -12.613281 12.945312 -14.03125 13.40625 -15.84375 C 14.039062 -18.4375 14.40625 -20.332031 14.5 -21.53125 C 14.601562 -22.726562 14.207031 -23.140625 13.3125 -22.765625 C 12.414062 -22.390625 10.789062 -21.148438 8.4375 -19.046875 C 5.144531 -16.210938 2.332031 -12.96875 0 -9.3125 C -0.289062 -8.820312 -0.648438 -8.414062 -1.078125 -8.09375 C -1.515625 -7.78125 -2.050781 -7.625 -2.6875 -7.625 C -3.300781 -7.625 -3.742188 -7.78125 -4.015625 -8.09375 C -4.285156 -8.414062 -4.296875 -8.847656 -4.046875 -9.390625 C -2.710938 -12.335938 -1.34375 -15.257812 0.0625 -18.15625 C 2.46875 -23.195312 4.835938 -28.210938 7.171875 -33.203125 C 8.921875 -36.941406 10.644531 -40.679688 12.34375 -44.421875 C 13.382812 -46.617188 14.40625 -48.816406 15.40625 -51.015625 C 15.5 -51.203125 15.601562 -51.394531 15.71875 -51.59375 C 15.800781 -51.84375 15.90625 -52.09375 16.03125 -52.34375 C 16.15625 -52.59375 16.300781 -52.863281 16.46875 -53.15625 C 16.601562 -53.40625 16.851562 -53.609375 17.21875 -53.765625 C 17.59375 -53.929688 17.96875 -54.035156 18.34375 -54.078125 C 18.71875 -54.117188 19.007812 -54.097656 19.21875 -54.015625 C 19.507812 -53.804688 19.671875 -53.585938 19.703125 -53.359375 C 19.742188 -53.140625 19.707031 -52.90625 19.59375 -52.65625 C 19.539062 -52.601562 19.515625 -52.519531 19.515625 -52.40625 C 19.066406 -51.070312 18.59375 -49.78125 18.09375 -48.53125 C 15.21875 -41.59375 12.078125 -34.757812 8.671875 -28.03125 C 8.421875 -27.570312 8.125 -27.023438 7.78125 -26.390625 C 7.289062 -25.484375 6.828125 -24.59375 6.390625 -23.71875 C 5.960938 -22.84375 5.820312 -22.257812 5.96875 -21.96875 C 6.113281 -21.675781 6.789062 -21.90625 8 -22.65625 C 8.351562 -22.90625 8.679688 -23.15625 8.984375 -23.40625 C 9.929688 -24.039062 10.867188 -24.640625 11.796875 -25.203125 C 12.617188 -25.742188 13.523438 -26.039062 14.515625 -26.09375 C 16.898438 -26.25 18.238281 -25.171875 18.53125 -22.859375 C 18.644531 -21.929688 18.609375 -21.007812 18.421875 -20.09375 C 18.242188 -19.1875 18.03125 -18.296875 17.78125 -17.421875 C 17.738281 -17.171875 17.695312 -16.921875 17.65625 -16.671875 C 17.25 -15.128906 17.351562 -14.242188 17.96875 -14.015625 C 18.59375 -13.785156 19.46875 -13.90625 20.59375 -14.375 C 21.71875 -14.851562 22.859375 -15.4375 24.015625 -16.125 C 24.804688 -16.53125 25.5 -16.878906 26.09375 -17.171875 C 26.695312 -17.472656 27.148438 -17.597656 27.453125 -17.546875 C 27.992188 -17.460938 28.238281 -17.242188 28.1875 -16.890625 C 28.144531 -16.535156 27.957031 -16.1875 27.625 -15.84375 Z M 27.625 -15.84375 "/></g></g></g><g fill="#2f2d2e" fill-opacity="1"><g transform="translate(319.541306, 191.75339)"><g><path d="M 0.84375 -6.015625 C -1.300781 -6.015625 -2.375 -7.140625 -2.375 -9.390625 C -2.375 -12.128906 -0.597656 -16.96875 2.953125 -23.90625 C 3.085938 -24.207031 3.335938 -24.359375 3.703125 -24.359375 C 5.128906 -24.359375 5.84375 -23.789062 5.84375 -22.65625 C 5.84375 -22.25 5.71875 -21.75 5.46875 -21.15625 C 5.382812 -21 4.195312 -18.003906 1.90625 -12.171875 C 1.539062 -11.222656 1.359375 -10.519531 1.359375 -10.0625 C 1.359375 -9.5625 1.585938 -9.3125 2.046875 -9.3125 C 3.703125 -9.3125 8.039062 -13.429688 15.0625 -21.671875 C 15.96875 -22.773438 16.863281 -23.328125 17.75 -23.328125 C 19.039062 -23.328125 19.6875 -22.851562 19.6875 -21.90625 C 19.6875 -21.539062 19.289062 -20.164062 18.5 -17.78125 C 17.414062 -14.539062 16.875 -12.671875 16.875 -12.171875 C 16.875 -11.421875 17.125 -11.046875 17.625 -11.046875 C 18.863281 -11.046875 22.5 -13.269531 28.53125 -17.71875 C 28.875 -18.007812 29.171875 -18.15625 29.421875 -18.15625 C 29.984375 -18.15625 30.265625 -17.679688 30.265625 -16.734375 C 30.265625 -16.484375 30.1875 -16.28125 30.03125 -16.125 C 26.832031 -13.375 24.113281 -11.285156 21.875 -9.859375 C 19.832031 -8.546875 18.015625 -7.890625 16.421875 -7.890625 L 15.953125 -7.890625 C 13.617188 -8.390625 12.453125 -10.210938 12.453125 -13.359375 C 9.953125 -11.160156 7.878906 -9.382812 6.234375 -8.03125 C 4.597656 -6.6875 2.800781 -6.015625 0.84375 -6.015625 Z M 0.84375 -6.015625 "/></g></g></g><g fill="#2f2d2e" fill-opacity="1"><g transform="translate(347.494323, 191.75339)"><g><path d="M 26.359375 -17.34375 C 26.535156 -17.09375 26.578125 -16.84375 26.484375 -16.59375 C 26.398438 -16.34375 26.234375 -16.117188 25.984375 -15.921875 C 24.421875 -14.515625 22.675781 -13.390625 20.75 -12.546875 C 17.4375 -11.003906 13.96875 -10.050781 10.34375 -9.6875 C 7.476562 -9.394531 4.753906 -9.828125 2.171875 -10.984375 C 1.222656 -11.410156 0.519531 -11.1875 0.0625 -10.3125 C -0.570312 -9.0625 -1.238281 -7.8125 -1.9375 -6.5625 C -2.28125 -5.863281 -2.65625 -5.140625 -3.0625 -4.390625 C -3.101562 -4.296875 -3.148438 -4.191406 -3.203125 -4.078125 C -3.359375 -3.828125 -3.507812 -3.585938 -3.65625 -3.359375 C -3.800781 -3.140625 -4.054688 -2.984375 -4.421875 -2.890625 C -4.597656 -2.847656 -4.789062 -2.828125 -5 -2.828125 C -5.207031 -2.828125 -5.390625 -2.867188 -5.546875 -2.953125 C -5.679688 -3.066406 -5.796875 -3.21875 -5.890625 -3.40625 C -5.992188 -3.601562 -6.046875 -3.804688 -6.046875 -4.015625 C -5.890625 -4.671875 -5.664062 -5.316406 -5.375 -5.953125 C -4.738281 -7.398438 -4.113281 -8.828125 -3.5 -10.234375 C -1.957031 -13.816406 -0.335938 -17.351562 1.359375 -20.84375 C 6.054688 -30.476562 10.523438 -40.207031 14.765625 -50.03125 C 15.097656 -50.976562 15.5625 -51.828125 16.15625 -52.578125 C 16.601562 -53.128906 17.226562 -53.28125 18.03125 -53.03125 C 18.84375 -52.6875 19.09375 -52.109375 18.78125 -51.296875 C 18.226562 -49.609375 17.632812 -47.914062 17 -46.21875 C 13.851562 -38.445312 10.410156 -30.816406 6.671875 -23.328125 C 5.867188 -21.722656 5.582031 -20.707031 5.8125 -20.28125 C 6.039062 -19.863281 6.570312 -19.832031 7.40625 -20.1875 C 8.25 -20.539062 9.226562 -21.007812 10.34375 -21.59375 C 11.132812 -22.050781 11.925781 -22.445312 12.71875 -22.78125 C 12.875 -22.894531 13.019531 -22.976562 13.15625 -23.03125 C 14.113281 -23.570312 15.144531 -23.863281 16.25 -23.90625 C 16.6875 -23.90625 17.003906 -23.710938 17.203125 -23.328125 C 17.316406 -23.078125 17.320312 -22.859375 17.21875 -22.671875 C 17.125 -22.492188 16.992188 -22.363281 16.828125 -22.28125 C 15.128906 -21.28125 13.410156 -20.328125 11.671875 -19.421875 C 10.828125 -19.035156 9.953125 -18.613281 9.046875 -18.15625 C 8.160156 -17.75 7.285156 -17.320312 6.421875 -16.875 C 5.835938 -16.53125 5.296875 -16.128906 4.796875 -15.671875 C 3.640625 -14.472656 3.765625 -13.476562 5.171875 -12.6875 C 6.328125 -12.1875 7.488281 -11.925781 8.65625 -11.90625 C 9.820312 -11.882812 10.984375 -12.019531 12.140625 -12.3125 C 15.722656 -13.101562 19.09375 -14.40625 22.25 -16.21875 C 22.5 -16.351562 22.742188 -16.476562 22.984375 -16.59375 C 23.578125 -16.976562 24.203125 -17.320312 24.859375 -17.625 C 25.109375 -17.726562 25.378906 -17.769531 25.671875 -17.75 C 25.972656 -17.726562 26.203125 -17.59375 26.359375 -17.34375 Z M 26.359375 -17.34375 "/></g></g></g></svg>