<svg xmlns="http://www.w3.org/2000/svg" xmlns:xlink="http://www.w3.org/1999/xlink" width="500" zoomAndPan="magnify" viewBox="0 0 375 366.749986" height="489" preserveAspectRatio="xMidYMid meet" version="1.0"><path fill="#aebdf1" d="M 187.386719 1.257812 C 84.757812 1.214844 1.632812 84.296875 1.632812 186.84375 C 1.632812 267.9375 53.632812 336.867188 126.050781 362.183594 C 135.804688 364.632812 134.308594 357.699219 134.308594 352.96875 L 134.308594 320.808594 C 77.992188 327.40625 75.710938 290.136719 71.933594 283.914062 C 64.296875 270.882812 46.246094 267.5625 51.640625 261.335938 C 64.464844 254.738281 77.535156 262.996094 92.683594 285.367188 C 103.640625 301.59375 125.011719 298.851562 135.84375 296.15625 C 138.210938 286.402344 143.273438 277.6875 150.246094 270.925781 C 91.894531 260.464844 67.578125 224.859375 67.578125 182.527344 C 67.578125 161.984375 74.339844 143.105469 87.621094 127.875 C 79.15625 102.765625 88.410156 81.269531 89.65625 78.074219 C 113.765625 75.914062 138.832031 95.335938 140.78125 96.871094 C 154.476562 93.179688 170.125 91.230469 187.636719 91.230469 C 205.234375 91.230469 220.917969 93.261719 234.738281 96.996094 C 239.429688 93.429688 262.667969 76.746094 285.078125 78.777344 C 286.28125 81.972656 295.328125 102.972656 287.359375 127.75 C 300.808594 143.019531 307.65625 162.070312 307.65625 182.652344 C 307.65625 225.066406 283.167969 260.714844 224.65625 271.007812 C 227.160156 273.472656 229.398438 276.160156 231.371094 279.070312 C 233.339844 281.980469 235.003906 285.054688 236.359375 288.296875 C 237.71875 291.539062 238.742188 294.882812 239.433594 298.332031 C 240.125 301.777344 240.46875 305.257812 240.464844 308.773438 L 240.464844 355.460938 C 240.796875 359.195312 240.464844 362.886719 246.691406 362.886719 C 320.1875 338.113281 373.101562 268.683594 373.101562 186.886719 C 373.101562 84.296875 289.933594 1.257812 187.386719 1.257812 Z M 187.386719 1.257812 " fill-opacity="1" fill-rule="nonzero"/></svg>