<svg xmlns="http://www.w3.org/2000/svg" xmlns:xlink="http://www.w3.org/1999/xlink" width="500" zoomAndPan="magnify" viewBox="0 0 375 374.999991" height="500" preserveAspectRatio="xMidYMid meet" version="1.0"><defs><clipPath id="05fdf7d2e2"><path d="M 7.367188 45 L 367 45 L 367 337.5 L 7.367188 337.5 Z M 7.367188 45 " clip-rule="nonzero"/></clipPath></defs><g clip-path="url(#05fdf7d2e2)"><path fill="000000" d="M 330.191406 118.117188 C 330.40625 121.289062 330.40625 124.460938 330.40625 127.652344 C 330.40625 225.097656 256.277344 337.476562 120.730469 337.476562 L 120.730469 337.421875 C 80.6875 337.484375 41.476562 326.011719 7.769531 304.367188 C 13.589844 305.0625 19.445312 305.414062 25.3125 305.429688 C 58.496094 305.457031 90.730469 294.316406 116.835938 273.796875 C 85.300781 273.199219 57.648438 252.625 47.988281 222.582031 C 59.035156 224.71875 70.414062 224.28125 81.253906 221.308594 C 46.871094 214.359375 22.136719 184.128906 22.136719 149.023438 C 22.136719 148.699219 22.136719 148.398438 22.136719 148.089844 C 32.382812 153.796875 43.855469 156.96875 55.585938 157.320312 C 23.210938 135.675781 13.230469 92.566406 32.785156 58.859375 C 70.199219 104.933594 125.402344 132.941406 184.660156 135.902344 C 178.71875 110.289062 186.835938 83.453125 205.984375 65.445312 C 235.667969 37.523438 282.347656 38.953125 310.25 68.644531 C 326.75 65.386719 342.570312 59.324219 357.046875 50.742188 C 351.542969 67.816406 340.035156 82.316406 324.652344 91.527344 C 339.257812 89.800781 353.535156 85.890625 366.972656 79.914062 C 357.074219 94.753906 344.609375 107.679688 330.191406 118.117188 Z M 330.191406 118.117188 " fill-opacity="1" fill-rule="nonzero"/></g></svg>